<svg width="343" height="223" viewBox="0 0 343 223" fill="none" xmlns="http://www.w3.org/2000/svg">
<g clip-path="url(#clip0_1172_127636)">
<path d="M189.657 184.454C178.359 190.615 166.758 195.822 155.17 201.246C144.356 206.308 133.876 213.251 122.983 217.782C105.99 224.849 86.1274 222.052 71.5719 209.071C71.5719 209.071 2.82698 154.486 1.21366 77.0751C0.752619 54.9533 14.7845 39.481 31.7039 33.9063C52.9712 26.9032 71.1746 37.6752 91.5495 43.8502C105.449 48.0634 119.68 51.6115 134.074 51.1737C148.131 50.743 160.84 38.8859 172.695 30.5883C187.408 20.2904 200.814 7.32601 218.129 3.86734C235.104 0.473944 252.474 3.70562 267.991 12.7399C267.991 12.7399 299.484 31.3682 327.527 94.1475C339.662 121.346 348.708 158.117 330.513 184.386C315.987 205.37 285.47 194.741 267.139 187.691C252.803 182.173 238.124 176.969 223.04 175.876C211.375 175.017 200.296 178.633 189.799 184.362L189.657 184.454Z" fill="#272626"/>
<path d="M53.5402 190.317H42.7922C40.9241 187.843 37.6492 182.851 39.7655 180.719C40.7285 179.751 41.787 180.672 42.7719 182.322C42.434 179.088 42.7719 175.998 45.008 175.095C47.0428 174.276 47.9524 176.753 48.3037 180.076C49.3045 178.186 50.6233 176.856 52.3424 176.961C54.8021 177.109 54.2081 180.412 52.7692 184.069C53.8612 183.234 55.0021 182.822 56.114 183.189C58.4417 183.957 56.2668 187.247 53.5402 190.317Z" fill="#30D4DE"/>
<path d="M267.213 179.961H262.246V190.318H267.213V179.961Z" fill="#C1D8ED"/>
<path d="M298.393 179.961H293.426V190.318H298.393V179.961Z" fill="#C1D8ED"/>
<path d="M302.946 136.084H257.693V186.978H302.946V136.084Z" fill="#C1D8ED"/>
<path d="M290.927 136.084H245.674V186.978H290.927V136.084Z" fill="#DEE8F5"/>
<path d="M255.194 179.961H250.228V190.318H255.194V179.961Z" fill="#DEE8F5"/>
<path d="M286.374 179.961H281.408V190.318H286.374V179.961Z" fill="#DEE8F5"/>
<g opacity="0.53">
<path d="M288.493 139.23H248.109V152.139H288.493V139.23Z" fill="#F3F5FD"/>
</g>
<g opacity="0.53">
<path d="M288.493 155.299H248.109V168.207H288.493V155.299Z" fill="#F3F5FD"/>
</g>
<g opacity="0.53">
<path d="M288.493 171.365H248.109V184.273H288.493V171.365Z" fill="#F3F5FD"/>
</g>
<path d="M268.301 147.491C269.291 147.491 270.094 146.683 270.094 145.685C270.094 144.688 269.291 143.879 268.301 143.879C267.31 143.879 266.507 144.688 266.507 145.685C266.507 146.683 267.31 147.491 268.301 147.491Z" fill="white"/>
<path d="M268.301 163.558C269.291 163.558 270.094 162.749 270.094 161.752C270.094 160.754 269.291 159.945 268.301 159.945C267.31 159.945 266.507 160.754 266.507 161.752C266.507 162.749 267.31 163.558 268.301 163.558Z" fill="white"/>
<path d="M268.301 179.626C269.291 179.626 270.094 178.817 270.094 177.82C270.094 176.822 269.291 176.014 268.301 176.014C267.31 176.014 266.507 176.822 266.507 177.82C266.507 178.817 267.31 179.626 268.301 179.626Z" fill="white"/>
<path d="M267.263 116.85L264.239 117.57L268.03 133.717L271.054 132.997L267.263 116.85Z" fill="#F0F6FF"/>
<path d="M270.59 115.599L267.994 129.771L269.673 130.083L272.269 115.911L270.59 115.599Z" fill="#C1D8ED"/>
<path d="M270.591 115.593L270.296 117.156L271.973 117.478L272.268 115.914L270.591 115.593Z" fill="#DEE8F5"/>
<path d="M265.393 119.198L264.46 119.568L269.9 133.474L270.832 133.104L265.393 119.198Z" fill="#FDB754"/>
<path d="M272.401 125.283H264.201V135.837H272.401V125.283Z" fill="#C1D8ED"/>
<path d="M162.964 117.619C186.937 117.619 206.37 98.0484 206.37 73.9071C206.37 49.7657 186.937 30.1953 162.964 30.1953C138.991 30.1953 119.558 49.7657 119.558 73.9071C119.558 98.0484 138.991 117.619 162.964 117.619Z" fill="#C1D8ED"/>
<path d="M154.117 117.619C178.089 117.619 197.523 98.0484 197.523 73.9071C197.523 49.7657 178.089 30.1953 154.117 30.1953C130.144 30.1953 110.71 49.7657 110.71 73.9071C110.71 98.0484 130.144 117.619 154.117 117.619Z" fill="#DEE8F5"/>
<path d="M154.117 111.18C174.558 111.18 191.128 94.4926 191.128 73.9081C191.128 53.3237 174.558 36.6367 154.117 36.6367C133.676 36.6367 117.106 53.3237 117.106 73.9081C117.106 94.4926 133.676 111.18 154.117 111.18Z" fill="#F3F5FD"/>
<path d="M154.116 77.7049C153.838 77.7051 153.563 77.6501 153.306 77.5431C153.049 77.436 152.815 77.279 152.619 77.081C152.422 76.8831 152.266 76.648 152.159 76.3892C152.053 76.1305 151.998 75.8532 151.998 75.5731V48.0258C151.998 47.4601 152.221 46.9175 152.618 46.5174C153.016 46.1173 153.554 45.8926 154.116 45.8926C154.678 45.8926 155.217 46.1173 155.614 46.5174C156.012 46.9175 156.235 47.4601 156.235 48.0258V71.9159L170.935 63.5926C171.178 63.4553 171.445 63.3675 171.721 63.334C171.997 63.3006 172.277 63.3224 172.545 63.3979C172.813 63.4735 173.064 63.6015 173.283 63.7746C173.501 63.9477 173.684 64.1625 173.82 64.4067C173.957 64.6509 174.044 64.9198 174.077 65.198C174.11 65.4762 174.089 65.7582 174.014 66.028C173.939 66.2978 173.812 66.5501 173.64 66.7704C173.468 66.9907 173.255 67.1748 173.012 67.3121L155.155 77.4227C154.839 77.6051 154.481 77.7023 154.116 77.7049Z" fill="#DEE8F5"/>
<path d="M72.7179 169.59V173.658V190.319H51.5322V173.658V169.59H72.7179Z" fill="#C1D8ED"/>
<path d="M79.6617 173.658H58.4761V190.319H79.6617V173.658Z" fill="#DEE8F5"/>
<path d="M79.6617 173.658H58.4761V174.907H79.6617V173.658Z" fill="#C1D8ED"/>
<path d="M58.4761 173.658H79.6617V169.59H58.4761V173.658Z" fill="#DEE8F5"/>
<path d="M66.7693 179.506H71.3685C71.6647 179.506 71.9049 179.264 71.9049 178.966V177.545C71.9049 177.246 71.6647 177.004 71.3685 177.004H66.7693C66.4731 177.004 66.2329 177.246 66.2329 177.545V178.966C66.2329 179.264 66.4731 179.506 66.7693 179.506Z" fill="white"/>
<path d="M218.437 103.119C218.437 104.046 217.951 107.145 218.733 107.367C219.202 107.499 219.755 105.189 219.755 105.189" fill="#FFC7C3"/>
<path d="M222.128 102.631C222.128 102.631 224.68 108.888 221.769 112.482C221.694 112.574 221.594 112.641 221.482 112.674C221.369 112.707 221.25 112.706 221.138 112.669C221.026 112.633 220.928 112.564 220.856 112.47C220.784 112.377 220.742 112.264 220.735 112.146C220.594 109.723 220.108 104.743 218.522 105.326V101.418" fill="#FFC7C3"/>
<path d="M184.676 186.827C183.992 181.036 183.992 180.44 183.992 180.244H190.479C190.479 180.224 190.479 180.199 190.479 180.168C190.502 180.651 190.829 183.601 191.119 186.056L184.676 186.827Z" fill="#FFC7C3"/>
<path d="M210.523 187.608C210.523 187.608 210.501 180.843 210.501 180.244H216.988C216.988 180.842 217.009 187.585 217.009 187.585L210.523 187.608Z" fill="#FFC7C3"/>
<path d="M193.711 184.765L182.282 184.569C182.757 172.449 182.838 158.587 182.966 146.043C183.001 142.934 183.234 139.83 183.664 136.751C185.502 123.462 186.701 110.249 189.177 97.0352L189.259 97.0598L189.501 95.4018L213 93.9414L214.223 109.403C214.223 109.403 217.284 162.888 218.68 184.394L207.292 185.363C205.24 164.278 202.064 133.554 200.111 111.404C197.868 122.188 196.343 133.354 194.393 144.046C194.004 157.43 193.674 171.421 193.711 184.765Z" fill="#AD2C55"/>
<path d="M202.637 190.135C202.463 190.134 202.291 190.097 202.131 190.026C201.971 189.955 201.828 189.851 201.71 189.722C201.592 189.593 201.501 189.441 201.444 189.275C201.387 189.109 201.365 188.933 201.378 188.758C201.397 188.515 201.484 188.282 201.63 188.088C201.775 187.893 201.973 187.745 202.2 187.66L209.749 185.113C209.896 185.064 210.051 185.048 210.204 185.065C210.357 185.082 210.505 185.133 210.637 185.212C211.675 185.938 212.916 186.308 214.179 186.27C215.162 186.2 216.106 185.852 216.903 185.268C216.973 185.21 217.058 185.173 217.148 185.162C217.238 185.151 217.329 185.166 217.411 185.205C217.493 185.244 217.562 185.306 217.611 185.383C217.659 185.46 217.684 185.55 217.684 185.641V189.359C217.684 189.469 217.663 189.577 217.621 189.679C217.579 189.78 217.518 189.872 217.441 189.949C217.363 190.027 217.272 190.088 217.171 190.13C217.07 190.171 216.962 190.193 216.853 190.192L202.637 190.135Z" fill="#C1D8ED"/>
<path d="M176.773 190.135C176.599 190.134 176.426 190.097 176.267 190.026C176.107 189.955 175.964 189.852 175.846 189.722C175.728 189.593 175.637 189.441 175.58 189.275C175.523 189.109 175.501 188.933 175.514 188.758C175.533 188.515 175.62 188.282 175.765 188.088C175.911 187.893 176.109 187.745 176.335 187.66L183.885 185.113C184.031 185.064 184.186 185.048 184.34 185.065C184.493 185.082 184.64 185.133 184.772 185.212C185.81 185.938 187.052 186.308 188.315 186.27C189.298 186.2 190.242 185.852 191.039 185.268C191.109 185.21 191.194 185.173 191.284 185.162C191.374 185.151 191.465 185.166 191.547 185.205C191.629 185.244 191.698 185.306 191.746 185.383C191.795 185.46 191.82 185.55 191.82 185.641V189.359C191.82 189.469 191.798 189.577 191.757 189.679C191.715 189.78 191.654 189.872 191.576 189.949C191.499 190.027 191.408 190.088 191.307 190.13C191.206 190.171 191.098 190.193 190.989 190.192L176.773 190.135Z" fill="#C1D8ED"/>
<path d="M205.585 62.106C205.585 62.106 203.196 60.8307 203.73 54.2807L198.795 53.3594C198.795 53.3594 199.351 59.2315 196.853 61.096L205.585 62.106Z" fill="#FFC7C3"/>
<g opacity="0.15">
<path d="M197.864 59.8676L201.964 56.7094L198.744 56.6758C198.65 57.7856 198.352 58.8681 197.864 59.8676Z" fill="black"/>
</g>
<path d="M206.53 51.7395C206.188 53.7275 205.112 55.6091 203.371 56.2499C201.473 57.009 199.42 57.2887 197.39 57.0645C191.988 56.6185 193.057 44.2489 195.621 41.8456C198.186 39.4424 205.715 40.9644 206.63 44.9833C207.104 47.0618 206.855 49.8489 206.53 51.7395Z" fill="#FFC7C3"/>
<path d="M191.844 40.6977C191.844 39.0544 193.874 36.3625 199.291 40.0756L199.297 40.0793C200.704 40.0395 202.11 40.1942 203.475 40.5391C204.454 40.8236 205.368 41.2969 206.167 41.9326C207.674 43.1644 208.773 45.191 208.261 48.4477C207.372 54.109 205.07 55.618 203.91 56.3123C203.614 56.4889 203.542 56.3449 203.44 56.0146C203.118 54.7926 202.888 53.5481 202.751 52.2915C202.575 50.9832 201.409 50.1542 201.55 48.5899C201.599 48.0428 202.474 46.0392 199.767 46.0162C198.245 46.0038 198.814 46.0647 197.189 46.0647C196.957 46.0647 196.753 46.0542 196.565 46.0374H196.562C190.954 46.038 191.844 42.3414 191.844 40.6977Z" fill="#0F1011"/>
<path d="M201.13 50.8625C201.097 51.3635 201.261 51.8576 201.586 52.2381C201.911 52.6185 202.372 52.8547 202.869 52.8956C203.366 52.9364 203.859 52.7787 204.241 52.4565C204.624 52.1342 204.865 51.6734 204.912 51.1736C204.937 50.9227 204.911 50.6693 204.837 50.4286C204.762 50.188 204.64 49.9648 204.478 49.7726C204.316 49.5803 204.118 49.4229 203.894 49.3096C203.67 49.1963 203.426 49.1295 203.177 49.1131C201.824 49.0699 201.216 49.8118 201.13 50.8625Z" fill="#FFC7C3"/>
<path d="M201.964 44.8008L203.361 45.3159C203.361 45.3159 202.866 52.3458 202.474 54.2666C202.082 56.1874 200.99 57.4394 199.75 57.5464C197.846 57.7107 196.467 57.7237 195.07 57.2214C193.495 56.6546 193.716 52.3999 193.716 52.3999C193.716 52.3999 198.783 52.9527 200.185 52.2755C201.587 51.5984 201.964 44.8008 201.964 44.8008Z" fill="#0F1011"/>
<path d="M198.802 50.21C199.049 50.21 199.249 50.0082 199.249 49.7593C199.249 49.5104 199.049 49.3086 198.802 49.3086C198.554 49.3086 198.354 49.5104 198.354 49.7593C198.354 50.0082 198.554 50.21 198.802 50.21Z" fill="#0F1011"/>
<path d="M195.271 49.9171C195.518 49.9171 195.719 49.7153 195.719 49.4664C195.719 49.2174 195.518 49.0156 195.271 49.0156C195.024 49.0156 194.823 49.2174 194.823 49.4664C194.823 49.7153 195.024 49.9171 195.271 49.9171Z" fill="#0F1011"/>
<path d="M194.495 48.5066C194.441 48.5049 194.389 48.4821 194.351 48.4429C194.313 48.4036 194.292 48.3511 194.292 48.2963C194.291 48.2415 194.312 48.1887 194.349 48.149C194.387 48.1093 194.438 48.0857 194.493 48.0833L195.678 48.0684C195.733 48.0701 195.786 48.0925 195.825 48.1312C195.865 48.1699 195.888 48.222 195.891 48.2774C195.892 48.3052 195.887 48.3328 195.876 48.3586C195.866 48.3844 195.851 48.408 195.832 48.4279C195.812 48.4478 195.789 48.4637 195.764 48.4746C195.739 48.4856 195.711 48.4914 195.684 48.4917L194.498 48.5066H194.495Z" fill="#0F1011"/>
<path d="M199.769 48.9421C199.752 48.9421 199.736 48.9401 199.719 48.9361L198.55 48.6528C198.523 48.6465 198.497 48.635 198.475 48.6187C198.452 48.6024 198.433 48.5817 198.418 48.5579C198.403 48.5341 198.394 48.5075 198.389 48.4798C198.385 48.4522 198.386 48.4239 198.392 48.3966C198.399 48.3693 198.411 48.3436 198.427 48.321C198.444 48.2984 198.464 48.2793 198.488 48.2648C198.512 48.2503 198.539 48.2407 198.566 48.2366C198.594 48.2326 198.622 48.234 198.649 48.2409L199.818 48.5243C199.868 48.5364 199.911 48.5666 199.941 48.6091C199.97 48.6516 199.983 48.7035 199.977 48.755C199.971 48.8064 199.947 48.8539 199.908 48.8883C199.87 48.9228 199.82 48.9419 199.769 48.9421Z" fill="#0F1011"/>
<g opacity="0.15">
<path d="M196.815 52.2598C196.852 52.2598 196.888 52.2464 196.916 52.2221C196.944 52.1978 196.963 52.1642 196.968 52.1273C196.974 52.0905 196.966 52.0529 196.946 52.0214C196.926 51.9898 196.896 51.9665 196.861 51.9555L195.95 51.674L196.587 50.246C196.602 50.2086 196.603 50.1667 196.588 50.1292C196.573 50.0916 196.544 50.0614 196.507 50.0449C196.471 50.0283 196.429 50.0268 196.392 50.0406C196.354 50.0544 196.323 50.0824 196.305 50.1187L195.597 51.7076C195.588 51.7277 195.583 51.7495 195.583 51.7716C195.583 51.7936 195.588 51.8154 195.597 51.8354C195.606 51.8555 195.619 51.8734 195.636 51.8879C195.652 51.9025 195.672 51.9133 195.693 51.9198L196.77 52.2529C196.785 52.2575 196.8 52.2598 196.815 52.2598Z" fill="black"/>
</g>
<path d="M198.595 53.3082C198.595 53.3082 196.943 53.4837 195.784 53.0762C195.784 53.0762 195.793 54.172 197.101 54.28C198.408 54.3879 198.595 53.3082 198.595 53.3082Z" fill="white"/>
<path d="M214.308 85.3324L217.085 104.188L223.748 103.193L220.927 84.0486C220.899 83.8567 220.855 83.6676 220.794 83.4834L214.837 65.3058L214.786 65.3226C214.485 64.3249 213.942 63.4186 213.205 62.686C211.794 61.2645 209.356 60.3469 206.385 60.3438C206.163 62.0888 195.642 62.095 195.562 60.3842C195.16 60.3904 194.848 60.3966 194.653 60.406C184.405 60.8508 188.908 72.5964 189.007 81.2251C189.127 91.3221 186.419 93.2258 187.753 96.3115C189.047 99.307 214.478 100.551 214.817 95.2819C215.034 91.9287 212.099 89.0016 212.099 82.4663C212.112 81.4922 212.219 80.5217 212.419 79.5684L214.308 85.3324Z" fill="#2DA3F4"/>
<path d="M194.23 80.2614C194.23 80.2614 198.069 79.4614 198.919 80.3174C199.769 81.1734 199.866 84.75 198.284 84.5369C197.9 84.4853 197.71 83.6548 197.018 83.9061C195.86 84.326 194.049 83.6884 194.049 83.6884" fill="#FFC7C3"/>
<path d="M194.23 86.206H179.349C178.732 86.2062 178.127 86.0359 177.6 85.7135C177.073 85.3911 176.644 84.9291 176.36 84.3779C176.075 83.8267 175.947 83.2074 175.988 82.5878C176.03 81.9681 176.24 81.3718 176.595 80.8639L189.14 62.9043L194.649 66.8065L185.835 79.4231H194.23V86.206Z" fill="#2DA3F4"/>
<path d="M195.266 79.6133H193.194C193.002 79.6133 192.845 79.7707 192.845 79.9648V79.9651C192.845 80.1592 193.002 80.3166 193.194 80.3166H195.266C195.459 80.3166 195.615 80.1592 195.615 79.9651V79.9648C195.615 79.7707 195.459 79.6133 195.266 79.6133Z" fill="#3A5B82"/>
<path d="M194.689 79.9648H193.772V84.2114H194.689V79.9648Z" fill="#3A5B82"/>
<path d="M195.562 60.3842C195.642 62.095 196.566 64.6115 199.417 64.8012C203.216 65.0532 206.163 62.0888 206.385 60.3438H206.376C202.635 60.3438 197.743 60.35 195.562 60.3842Z" fill="#FFC7C3"/>
</g>
<defs>
<clipPath id="clip0_1172_127636">
<rect width="342" height="222" fill="white" transform="translate(0.0102539 0.318359)"/>
</clipPath>
</defs>
</svg>

